<svg data-v-fde0c5aa="" xmlns="http://www.w3.org/2000/svg" viewBox="0 0 300 300" class="iconAbove"><!----><defs data-v-fde0c5aa=""><!----></defs><rect data-v-fde0c5aa="" fill="transparent" x="0" y="0" width="300px" height="300px" class="logo-background-square"></rect><defs data-v-fde0c5aa=""><!----></defs><g data-v-fde0c5aa="" id="c08ba1cf-d833-4547-b412-13e52528992f" fill="#000000" transform="matrix(6.870748834214152,0,0,6.870748834214152,16.329590145131093,179.40612095796138)"><path d="M3.31 1.96L3.31 1.96L3.31 1.96Q4.94 1.96 5.49 3.01L5.49 3.01L5.49 3.01Q5.87 3.80 5.87 4.56L5.87 4.56L5.86 4.56L5.86 4.56Q4.74 4.66 4.33 4.66L4.33 4.66L4.33 4.66Q4.33 4.12 4.00 3.75L4.00 3.75L4.00 3.75Q3.68 3.57 3.42 3.57L3.42 3.57L3.14 3.57L3.14 3.57Q2.45 3.57 2.30 4.11L2.30 4.11L2.30 4.11Q2.26 4.27 2.26 4.35L2.26 4.35L2.26 4.50L2.26 4.50Q2.26 5.26 3.07 5.61L3.07 5.61L3.07 5.61Q3.14 5.67 4.19 6.12L4.19 6.12L4.19 6.12Q4.75 6.38 5.23 6.76L5.23 6.76L5.23 6.77L3.51 6.77L3.51 6.97L5.78 6.97L5.78 7.24L6.06 7.24L6.06 10.21L5.50 10.21L5.50 11.73L1.16 11.73L1.16 10.21L0.13 10.21L0.13 9.18L0.71 9.18L0.71 8.83L0.13 8.83L0.13 8.59L2.12 8.59L2.12 10.21L4.16 10.21L4.16 7.77L2.63 7.77L2.63 6.97L0.74 6.97L0.74 6.77L1.65 6.77L1.65 6.76L1.65 6.76Q0.45 5.96 0.45 4.50L0.45 4.50L0.45 4.37L0.45 4.37Q0.45 3.14 1.20 2.51L1.20 2.51L1.20 2.51Q1.89 1.96 3.31 1.96ZM5.78 6.97L5.78 6.77L6.47 6.77L6.47 6.97L5.78 6.97ZM-0.53 9.18L-0.53 8.83L0.13 8.83L0.13 9.18L-0.53 9.18ZM3.86 8.83L3.86 8.83L4.06 8.83L4.06 8.83Q4.09 8.83 4.09 8.86L4.09 8.86L4.09 8.91L3.92 8.91L3.92 8.97L4.07 8.97L4.07 9.02L4.07 9.02Q4.07 9.05 4.05 9.05L4.05 9.05L3.92 9.05L3.92 9.12L4.09 9.12L4.09 9.17L4.09 9.17Q4.09 9.19 4.06 9.19L4.06 9.19L3.86 9.19L3.86 9.19Q3.82 9.19 3.82 9.17L3.82 9.17L3.82 8.86L3.82 8.86Q3.83 8.83 3.86 8.83ZM3.77 9.31L3.77 9.31L3.83 9.31L3.83 9.31Q3.85 9.31 3.95 9.43L3.95 9.43L3.95 9.43Q4.00 9.31 4.03 9.31L4.03 9.31L4.07 9.31L4.07 9.31Q4.11 9.31 4.11 9.34L4.11 9.34L4.11 9.34Q3.96 9.50 3.96 9.68L3.96 9.68L3.92 9.68L3.92 9.68Q3.88 9.68 3.87 9.49L3.87 9.49L3.87 9.49Q3.77 9.36 3.77 9.31ZM3.73 9.79L3.73 9.79L3.79 9.79L3.79 9.79Q3.83 9.79 3.87 10.00L3.87 10.00L3.90 10.00L3.90 10.00Q3.94 9.79 3.98 9.79L3.98 9.79L4.05 9.79L4.05 9.79Q4.07 9.80 4.07 9.82L4.07 9.82L4.07 10.12L4.07 10.12Q4.07 10.16 4.05 10.16L4.05 10.16L4.00 10.16L4.00 9.95L3.98 9.95L3.92 10.16L3.87 10.16L3.87 10.16Q3.83 10.16 3.79 9.95L3.79 9.95L3.77 9.95L3.77 10.16L3.73 10.16L3.73 10.16Q3.69 10.16 3.69 10.12L3.69 10.12L3.69 9.82L3.69 9.82Q3.70 9.79 3.73 9.79ZM5.60 10.62L5.60 10.29L5.76 10.29L5.76 10.29Q5.89 10.29 5.89 10.42L5.89 10.42L5.89 10.42Q5.86 10.42 5.86 10.45L5.86 10.45L5.86 10.45Q5.91 10.51 5.91 10.56L5.91 10.56L5.91 10.56Q5.87 10.66 5.73 10.66L5.73 10.66L5.63 10.66L5.63 10.66Q5.60 10.66 5.60 10.62L5.60 10.62ZM5.79 10.37L5.69 10.37L5.69 10.43L5.76 10.43L5.76 10.43Q5.79 10.43 5.79 10.40L5.79 10.40L5.79 10.37ZM5.78 10.49L5.69 10.49L5.69 10.58L5.78 10.58L5.78 10.58Q5.81 10.58 5.81 10.54L5.81 10.54L5.81 10.53L5.81 10.53Q5.81 10.49 5.78 10.49L5.78 10.49ZM5.60 11.10L5.60 10.77L5.67 10.77L5.67 10.77Q5.70 10.77 5.81 10.99L5.81 10.99L5.82 10.99L5.82 10.77L5.91 10.77L5.91 11.10L5.91 11.10Q5.91 11.14 5.87 11.14L5.87 11.14L5.84 11.14L5.84 11.14Q5.82 11.14 5.68 10.93L5.68 10.93L5.68 11.10L5.68 11.10Q5.68 11.14 5.65 11.14L5.65 11.14L5.63 11.14L5.63 11.14Q5.60 11.14 5.60 11.10L5.60 11.10ZM10.38 1.93L10.38 1.93L10.38 1.93Q12.43 1.93 12.96 3.22L12.96 3.22L12.96 3.22Q13.12 3.53 13.12 3.63L13.12 3.63L12.26 3.63L12.26 3.89L13.19 3.89L13.19 3.88L13.19 3.88Q13.19 3.81 13.12 3.63L13.12 3.63L14.70 3.63L14.70 3.89L13.20 3.89L13.20 3.91L13.20 3.91Q13.32 4.46 13.36 5.09L13.36 5.09L13.36 5.09Q13.36 5.13 11.57 5.22L11.57 5.22L11.57 5.21L11.57 5.21Q11.57 3.58 10.45 3.58L10.45 3.58L10.25 3.58L10.25 3.58Q9.41 3.58 9.23 4.29L9.23 4.29L9.23 4.29Q9.08 4.89 9.08 5.87L9.08 5.87L9.08 7.21L9.06 7.40L8.44 7.40L8.44 7.71L9.06 7.71L9.06 10.08L11.70 10.08L11.70 7.62L13.21 7.62L13.21 10.08L12.37 10.08L12.37 11.60L10.62 11.60L10.62 11.73L9.25 11.73L9.25 11.60L7.86 11.60L7.86 10.84L8.78 10.84L8.78 10.51L7.40 10.51L7.40 9.39L6.81 9.39L6.81 8.00L7.12 8.00L7.12 8.00Q7.10 7.16 7.10 6.66L7.10 6.66L7.10 6.66Q7.10 4.42 7.31 3.84L7.31 3.84L7.31 3.84Q7.53 3.17 7.98 2.69L7.98 2.69L7.98 2.69Q8.78 1.93 10.38 1.93ZM15.13 7.57L16.81 1.96L18.46 1.96L18.46 1.96Q18.49 2.10 20.06 7.29L20.06 7.29L20.36 7.29L20.36 10.51L19.68 10.51L19.68 10.76L20.36 10.76L20.36 11.45L18.54 11.45L18.54 9.47L16.32 9.47L16.32 10.32L15.41 10.32L15.41 11.73L13.76 11.73L13.76 11.63L13.89 11.63L13.89 10.32L14.57 10.32L14.57 7.57L15.13 7.57ZM17.62 4.71L17.58 4.71L17.58 4.72L17.58 4.72Q17.37 5.89 16.76 8.40L16.76 8.40L18.29 8.40L18.29 7.29L18.16 7.29L18.16 7.29Q17.62 4.92 17.62 4.71L17.62 4.71ZM13.28 7.57L13.28 7.28L14.57 7.28L14.57 7.57L13.28 7.57ZM18.54 11.73L18.54 11.57L20.73 11.57L20.73 11.73L18.54 11.73ZM20.73 1.96L20.73 1.96L22.73 1.96L22.73 1.96Q22.77 1.96 23.37 3.53L23.37 3.53L23.37 3.53Q23.42 3.59 24.63 6.62L24.63 6.62L25.14 6.62L25.14 1.96L26.89 1.96L26.89 7.51L27.08 7.51L27.08 9.67L26.38 9.67L26.38 10.08L27.08 10.08L27.08 11.37L24.47 11.37L24.47 9.73L24.00 9.73L24.00 9.73Q23.06 7.44 22.73 6.56L22.73 6.56L22.73 4.92L22.48 4.92L22.48 9.93L22.09 9.93L22.09 11.66L20.45 11.66L20.45 7.94L20.75 7.94L20.75 7.92L20.75 7.92Q20.73 3.09 20.73 1.96ZM24.60 6.62L23.67 6.62L23.67 6.98L24.76 6.98L24.76 6.98Q24.63 6.62 24.60 6.62L24.60 6.62ZM25.95 6.62L25.16 6.62L25.16 6.98L24.77 6.98L24.77 6.98Q25.12 7.85 25.19 8.11L25.19 8.11L25.20 8.11L25.20 8.07L25.20 8.07Q25.16 7.18 25.16 6.98L25.16 6.98L25.95 6.98L25.95 6.62ZM24.47 11.73L24.47 11.55L27.63 11.55L27.63 11.73L24.47 11.73ZM31.81 1.93L31.81 1.93L33.65 1.93L33.65 1.93Q33.68 1.94 33.68 1.97L33.68 1.97L33.68 6.73L33.68 6.73Q33.68 6.76 33.65 6.76L33.65 6.76L33.43 6.76L33.43 11.70L33.43 11.70Q33.43 11.73 33.40 11.73L33.40 11.73L31.81 11.73L31.81 11.73Q31.77 11.73 31.77 11.70L31.77 11.70L31.77 6.64L31.28 6.64L31.28 6.64Q31.25 6.64 31.25 6.61L31.25 6.61L31.25 6.40L31.25 6.40Q31.25 6.36 31.28 6.36L31.28 6.36L31.77 6.36L31.77 1.97L31.77 1.97Q31.78 1.93 31.81 1.93ZM32.73 6.36L31.79 6.36L31.79 6.64L32.73 6.64L32.73 6.36ZM33.69 3.57L33.69 1.93L39.44 1.93L39.44 3.57L37.54 3.57L37.54 10.34L38.40 10.34L38.40 10.54L37.54 10.54L37.54 11.29L37.02 11.29L37.02 11.55L37.39 11.55L37.39 11.73L35.64 11.73L35.64 11.73Q35.61 11.73 35.61 11.70L35.61 11.70L35.61 3.57L33.69 3.57ZM37.52 10.34L36.86 10.34L36.86 10.54L37.52 10.54L37.52 10.34Z"></path></g><defs data-v-fde0c5aa=""><linearGradient data-v-fde0c5aa="" gradientTransform="rotate(25)" id="b2441a68-291f-4cdf-9661-bc34c7f8d1b9" x1="0%" y1="0%" x2="100%" y2="0%"><stop data-v-fde0c5aa="" offset="0%" stop-color="#326D8A" stop-opacity="1"></stop><stop data-v-fde0c5aa="" offset="100%" stop-color="#D468D7" stop-opacity="1"></stop></linearGradient></defs><g data-v-fde0c5aa="" id="da7ea213-2508-47ad-b079-309626d26fac" stroke="none" fill="url(#b2441a68-291f-4cdf-9661-bc34c7f8d1b9)" transform="matrix(2.4047619047619047,0,0,2.4047619047619047,73.0798315774827,30.38095238095238)"><path d="M7 56v1a3 3 0 0 0 3 3h10.78a2.954 2.954 0 0 1 0-4zM39 7a3 3 0 0 0-3-3H10a3 3 0 0 0-3 3v1h32zm-15.08-.62a1.169 1.169 0 0 1-.21.33.99.99 0 0 1-1.09.21 1.032 1.032 0 0 1-.33-.21 1.169 1.169 0 0 1-.21-.33A.838.838 0 0 1 22 6a1 1 0 0 1 .08-.38 1.032 1.032 0 0 1 .21-.33 1.047 1.047 0 0 1 1.42 0 1.155 1.155 0 0 1 .21.33.943.943 0 0 1 0 .76z"></path><circle cx="23" cy="58" r="1"></circle><path d="M26 58a2.981 2.981 0 0 1-.78 2H36a3 3 0 0 0 3-3v-1H25.22a2.981 2.981 0 0 1 .78 2zM9 32a19.964 19.964 0 0 1 30-17.294V10H7v44h32v-4.706A19.964 19.964 0 0 1 9 32z"></path><path d="M26 35h-6v6h6zm-2 4h-2v-2h2zM26 23h-6v6h6zm-2 4h-2v-2h2zM38 23h-6v6h6zm-2 4h-2v-2h2zM44.414 50.001L47 47.415l1.586 1.586L46 51.587zM56.465 56.879L50 50.414 47.414 53l6.465 6.465a1.829 1.829 0 0 0 2.586-2.586z"></path><path d="M29 14a18 18 0 1 0 18 18 18.021 18.021 0 0 0-18-18zm-1 29H18V33h10zm0-12H18V21h10zm12 10h-2v2h-2v-2h2v-2h-2v-2h-4v2h2v4h-2v-2h-2v-4h2v-2h-2v-2h4v2h2v2h4zm0-6h-2v-2h2zm0-4H30V21h10zM42.293 46.708l1.414-1.415 2 2-1.415 1.414z"></path></g><!----></svg>